<svg width="1024" height="576" viewBox="0 0 1024 576" fill="none" xmlns="http://www.w3.org/2000/svg">
  <defs>
    <linearGradient id="bg" x1="0" y1="0" x2="1024" y2="576" gradientUnits="userSpaceOnUse">
      <stop stop-color="#061018"/>
      <stop offset="0.48" stop-color="#04373A"/>
      <stop offset="1" stop-color="#061118"/>
    </linearGradient>
    <linearGradient id="gold" x1="0" y1="0" x2="1" y2="0">
      <stop stop-color="#F0B90B"/>
      <stop offset="0.45" stop-color="#FFE14A"/>
      <stop offset="1" stop-color="#FFD000"/>
    </linearGradient>
    <linearGradient id="cyan" x1="0" y1="0" x2="1" y2="0">
      <stop stop-color="#EFFFFF"/>
      <stop offset="1" stop-color="#77F5F3"/>
    </linearGradient>
    <filter id="blur">
      <feGaussianBlur stdDeviation="4"/>
    </filter>
    <filter id="glow" x="-60%" y="-60%" width="220%" height="220%">
      <feGaussianBlur stdDeviation="6" result="blur"/>
      <feMerge>
        <feMergeNode in="blur"/>
        <feMergeNode in="SourceGraphic"/>
      </feMerge>
    </filter>
    <filter id="soft" x="-30%" y="-30%" width="160%" height="160%">
      <feGaussianBlur stdDeviation="1.2"/>
    </filter>
  </defs>

  <rect width="1024" height="576" fill="url(#bg)"/>
  <rect width="1024" height="576" fill="url(#bg)" opacity="0.72"/>
  <path d="M0 424C148 466 262 482 390 421C544 348 638 181 786 93C878 38 953 45 1024 12" stroke="#E9D34A" stroke-width="1" opacity="0.55"/>
  <path d="M0 497C144 514 256 512 356 430C487 322 593 329 718 276C842 224 925 148 1024 25" stroke="#E9D34A" stroke-width="1.2" opacity="0.65"/>
  <path d="M0 534C155 472 284 490 398 392C527 281 658 360 792 240C891 151 950 79 1024 0" stroke="#EAFDFF" stroke-width="4" opacity="0.9" filter="url(#glow)"/>

  <g opacity="0.22" filter="url(#blur)">
    <rect x="36" y="39" width="152" height="40" rx="3" fill="#1F8B91"/>
    <rect x="203" y="39" width="130" height="40" rx="3" fill="#1F8B91"/>
    <rect x="347" y="39" width="99" height="40" rx="3" fill="#1F8B91"/>
    <rect x="460" y="39" width="140" height="40" rx="3" fill="#1F8B91"/>
    <rect x="615" y="39" width="177" height="40" rx="3" fill="#1F8B91"/>
    <rect x="36" y="88" width="151" height="224" rx="3" fill="#0F3E45" stroke="#1E727B"/>
    <rect x="203" y="88" width="130" height="145" rx="3" fill="#0F3E45" stroke="#1E727B"/>
    <rect x="347" y="88" width="99" height="149" rx="3" fill="#0F3E45" stroke="#1E727B"/>
    <rect x="460" y="88" width="140" height="247" rx="3" fill="#0F3E45" stroke="#1E727B"/>
    <rect x="615" y="88" width="177" height="208" rx="3" fill="#0F3E45" stroke="#1E727B"/>
  </g>

  <g opacity="0.58">
    <rect x="40" y="89" width="5" height="136" fill="#D7B72F"/>
    <rect x="209" y="88" width="5" height="101" fill="#D7B72F"/>
    <rect x="352" y="87" width="5" height="96" fill="#D7B72F"/>
    <rect x="464" y="86" width="5" height="244" fill="#D7B72F"/>
    <rect x="620" y="89" width="5" height="180" fill="#D7B72F"/>
    <rect x="472" y="101" width="68" height="13" rx="2" fill="#FFD529"/>
    <rect x="470" y="181" width="91" height="17" rx="2" fill="#62C56E"/>
    <rect x="633" y="101" width="88" height="18" rx="2" fill="#2AD1D0"/>
    <rect x="701" y="121" width="51" height="15" rx="2" fill="#DAF2F1"/>
  </g>

  <g filter="url(#glow)">
    <path d="M0 520C79 500 134 458 210 456C294 454 308 365 388 391C468 417 492 466 565 399C636 334 641 227 701 222C760 217 761 303 825 256C890 208 911 121 970 71" stroke="url(#gold)" stroke-width="8" stroke-linecap="round"/>
    <path d="M542 368L962 62" stroke="url(#gold)" stroke-width="9" stroke-linecap="round"/>
    <path d="M924 67L974 58L956 106Z" fill="#FFD000"/>
  </g>

  <g filter="url(#glow)" opacity="0.92">
    <path d="M0 489C103 486 179 512 263 473C345 435 393 336 480 343C551 349 569 384 634 344C695 306 699 249 764 265C824 279 842 345 914 300C954 275 981 260 1024 264" stroke="url(#cyan)" stroke-width="4.5" stroke-linecap="round"/>
  </g>

  <g opacity="0.65">
    <path d="M92 398L184 342L260 302L418 242L518 265L662 86L784 86" stroke="#6BECEE" stroke-width="1"/>
    <circle cx="52" cy="361" r="4" fill="#FFD829" filter="url(#glow)"/>
    <circle cx="151" cy="358" r="4" fill="#FFD829" filter="url(#glow)"/>
    <circle cx="184" cy="342" r="4" fill="#FFD829" filter="url(#glow)"/>
    <circle cx="260" cy="302" r="4" fill="#FFD829" filter="url(#glow)"/>
    <circle cx="417" cy="242" r="4" fill="#FFD829" filter="url(#glow)"/>
    <circle cx="512" cy="451" r="4" fill="#7DF5F2" filter="url(#glow)"/>
    <circle cx="670" cy="430" r="5" fill="#95F2F3" filter="url(#glow)"/>
    <circle cx="787" cy="341" r="4" fill="#FFD829" filter="url(#glow)"/>
    <circle cx="954" cy="202" r="4" fill="#FFD829" filter="url(#glow)"/>
  </g>

  <g opacity="0.66">
    <rect x="804" y="213" width="11" height="159" fill="#E8D045"/>
    <rect x="824" y="258" width="11" height="114" fill="#D8CA52"/>
    <rect x="845" y="270" width="11" height="102" fill="#D8CA52"/>
    <rect x="865" y="260" width="11" height="112" fill="#FFD425"/>
    <rect x="886" y="213" width="11" height="159" fill="#FFD425"/>
    <rect x="906" y="248" width="11" height="124" fill="#E5D45B"/>
  </g>
  <path d="M803 373H939" stroke="#E7CE32" stroke-width="1.2"/>
  <path d="M936 369L944 373L936 377" stroke="#E7CE32" stroke-width="1.2"/>

  <g font-family="Inter, Arial, sans-serif" font-weight="700" fill="#EEF5F6">
    <text x="891" y="31" font-size="13">PROJECT</text>
    <text x="879" y="47" font-size="13">MILESTONE</text>
    <text x="893" y="63" font-size="13">REACHED</text>
    <text x="700" y="401" font-size="16">TEAM WORKFLOW DASHBOARD</text>
  </g>
  <g font-family="Inter, Arial, sans-serif" font-size="11" fill="#EAFDFE">
    <text x="700" y="428">PROJECT NAME</text>
    <text x="790" y="428">PROGRESS %</text>
    <text x="879" y="428">OPEN</text>
    <text x="966" y="428" text-anchor="middle">TEAM</text>
    <text x="700" y="457">Alpha Phase</text><text x="810" y="457" fill="#FFDE33">85%</text><text x="881" y="457">150</text><text x="964" y="457">High</text>
    <text x="700" y="486">Mobile App</text><text x="810" y="486" fill="#FFDE33">60%</text><text x="881" y="486">110</text><text x="964" y="486">Med</text>
    <text x="700" y="513">Design Sprint</text><text x="810" y="513" fill="#FFDE33">75%</text><text x="881" y="513">85</text><text x="964" y="513">High</text>
  </g>
  <g stroke="#51C8C9" opacity="0.45">
    <line x1="698" y1="438" x2="994" y2="438"/>
    <line x1="698" y1="465" x2="994" y2="465"/>
    <line x1="698" y1="493" x2="994" y2="493"/>
    <line x1="785" y1="416" x2="785" y2="522"/>
    <line x1="854" y1="416" x2="854" y2="522"/>
    <line x1="925" y1="416" x2="925" y2="522"/>
  </g>

  <g fill="none" stroke="#FFD82E" stroke-width="2" opacity="0.86">
    <rect x="964" y="28" width="26" height="26" rx="1"/>
    <path d="M990 32H998L992 39L998 46H990"/>
    <path d="M963 23V60"/>
    <circle cx="526" cy="325" r="13"/><path d="M526 316V325L534 329"/>
    <rect x="331" y="353" width="23" height="23" rx="2"/><path d="M335 363L342 370L353 357"/>
    <circle cx="587" cy="267" r="14"/><path d="M587 255V267L596 272"/>
    <rect x="490" y="487" width="23" height="19" rx="2"/><path d="M493 482V491M510 482V491M490 494H513"/>
  </g>

  <g opacity="0.5" filter="url(#soft)">
    <path d="M69 433A19 19 0 1 0 107 433A19 19 0 1 0 69 433" fill="#153B40"/>
    <path d="M88 414A19 19 0 0 1 106 426L88 433Z" fill="#FFD52C"/>
    <path d="M88 433L100 449A19 19 0 0 1 74 448Z" fill="#5ABEC1"/>
  </g>

  <path d="M980 514L991 531L1010 540L991 549L980 566L969 549L950 540L969 531Z" fill="#D5DCE0" opacity="0.82"/>
  <rect width="1024" height="576" fill="black" opacity="0.08"/>
</svg>
